<svg height="512pt" viewBox="0 0 512 512" width="512pt" xmlns="http://www.w3.org/2000/svg"><path d="m503.464844 256c0 5.71875-.167969 11.433594-.679688 17.066406-8.871094 129.75-116.734375 230.453125-246.785156 230.398438-4.265625 0-8.449219-.082032-12.714844-.339844h-.851562c-64.976563-3.5-125.945313-32.511719-169.644532-80.726562l-.253906-.253907c-18-19.871093-32.667968-42.519531-43.4375-67.074219-1.363281-3.15625-2.730468-6.398437-3.925781-9.640624-.851563-2.132813-1.707031-4.351563-2.386719-6.570313-.683594-1.707031-1.28125-3.328125-1.792968-5.035156-.511719-1.707031-1.195313-3.5-1.621094-5.289063-.574219-1.625-1.058594-3.277344-1.449219-4.949218-.769531-2.5625-1.453125-5.121094-2.050781-7.683594-.179688-.585938-.324219-1.183594-.425782-1.789063-.769531-2.988281-1.449218-5.976562-2.046874-9.046875-.683594-3.414062-1.28125-6.828125-1.878907-10.238281-.597656-4.183594-1.195312-8.449219-1.621093-12.714844-.339844-2.988281-.597657-5.976562-.769532-8.960937v-.257813c-.253906-2.730469-.339844-5.546875-.425781-8.359375-.085937-2.816406-.167969-5.632812-.167969-8.535156zm0 0" fill="#728f9c"/><path d="m503.464844 256h-494.929688c0-5.71875.167969-11.433594.679688-17.066406 8.519531-124.859375 109-223.652344 233.984375-230.058594 4.265625-.257812 8.535156-.339844 12.800781-.339844 130.050781-.054687 237.914062 100.648438 246.785156 230.398438.511719 5.632812.679688 11.347656.679688 17.066406zm0 0" fill="#d13d34"/><path d="m477.867188 256c0 5.71875-.171876 11.433594-.683594 17.066406-8.535156 124.816406-108.957032 223.589844-233.898438 230.058594h-.851562c-64.976563-3.5-125.945313-32.511719-169.644532-80.726562l-.253906-.253907c-18-19.871093-32.667968-42.519531-43.4375-67.074219-1.363281-3.15625-2.730468-6.398437-3.925781-9.640624-.851563-2.132813-1.707031-4.351563-2.386719-6.570313-.683594-1.707031-1.28125-3.328125-1.792968-5.035156-.511719-1.707031-1.195313-3.5-1.621094-5.289063-.574219-1.625-1.058594-3.277344-1.449219-4.949218-.769531-2.5625-1.453125-5.121094-2.050781-7.683594-.179688-.585938-.324219-1.183594-.425782-1.789063-.769531-2.988281-1.449218-5.976562-2.046874-9.046875-.683594-3.414062-1.28125-6.828125-1.878907-10.238281-.597656-4.183594-1.195312-8.449219-1.621093-12.714844-.339844-2.988281-.597657-5.976562-.769532-8.960937v-.257813c-.253906-2.730469-.339844-5.546875-.425781-8.359375-.085937-2.816406-.167969-5.632812-.167969-8.535156zm0 0" fill="#d7dee2"/><path d="m477.867188 256h-469.332032c0-5.71875.167969-11.433594.679688-17.066406 8.519531-124.859375 109-223.652344 233.984375-230.058594 124.984375 6.40625 225.464843 105.199219 233.984375 230.058594.511718 5.632812.683594 11.347656.683594 17.066406zm0 0" fill="#f85b44"/><path d="m358.398438 256c0 56.554688-45.84375 102.398438-102.398438 102.398438s-102.398438-45.84375-102.398438-102.398438 45.84375-102.398438 102.398438-102.398438 102.398438 45.84375 102.398438 102.398438zm0 0" fill="#728f9c"/><path d="m324.265625 256c0 37.703125-30.5625 68.265625-68.265625 68.265625s-68.265625-30.5625-68.265625-68.265625 30.5625-68.265625 68.265625-68.265625 68.265625 30.5625 68.265625 68.265625zm0 0" fill="#d7dee2"/><path d="m256 512c-141.386719 0-256-114.613281-256-256s114.613281-256 256-256 256 114.613281 256 256c-.160156 141.320312-114.679688 255.839844-256 256zm0-494.933594c-131.960938 0-238.933594 106.972656-238.933594 238.933594s106.972656 238.933594 238.933594 238.933594 238.933594-106.972656 238.933594-238.933594c-.152344-131.898438-107.035156-238.78125-238.933594-238.933594zm0 0"/><path d="m384 435.199219c-3.671875 0-6.933594-2.347657-8.09375-5.835938-1.164062-3.484375.035156-7.320312 2.972656-9.523437 20.835938-15.640625 38.503906-35.109375 52.054688-57.359375 2.476562-3.972657 7.691406-5.207031 11.683594-2.769531 3.996093 2.441406 5.28125 7.640624 2.882812 11.660156-14.667969 24.105468-33.804688 45.191406-56.378906 62.121094-1.476563 1.113281-3.273438 1.710937-5.121094 1.707031zm0 0"/><path d="m145.066406 82.277344c-3.828125.007812-7.191406-2.535156-8.226562-6.21875-1.039063-3.683594.503906-7.609375 3.773437-9.601563 16.589844-10.113281 34.441407-17.996093 53.09375-23.449219 2.925781-.855468 6.085938-.082031 8.289063 2.023438 2.207031 2.105469 3.117187 5.230469 2.394531 8.191406-.722656 2.960938-2.96875 5.3125-5.898437 6.167969-17.199219 5.023437-33.660157 12.296875-48.953126 21.632813-1.34375.828124-2.894531 1.261718-4.472656 1.253906zm0 0"/><path d="m73.738281 153.601562c-3.085937-.003906-5.929687-1.671874-7.441406-4.359374-1.507813-2.691407-1.445313-5.988282.160156-8.621094 8.492188-13.914063 18.484375-26.851563 29.800781-38.589844 3.292969-3.246094 8.578126-3.277344 11.910157-.070312 3.332031 3.210937 3.5 8.492187.375 11.90625-10.449219 10.839843-19.675781 22.792968-27.519531 35.644531-1.550782 2.539062-4.3125 4.089843-7.285157 4.089843zm0 0"/><path d="m256 366.933594c-61.265625 0-110.933594-49.667969-110.933594-110.933594s49.667969-110.933594 110.933594-110.933594 110.933594 49.667969 110.933594 110.933594c-.070313 61.238281-49.695313 110.863281-110.933594 110.933594zm0-204.800782c-51.839844 0-93.867188 42.027344-93.867188 93.867188s42.027344 93.867188 93.867188 93.867188 93.867188-42.027344 93.867188-93.867188c-.0625-51.816406-42.050782-93.804688-93.867188-93.867188zm0 0"/><path d="m256 332.800781c-42.414062 0-76.800781-34.386719-76.800781-76.800781s34.386719-76.800781 76.800781-76.800781 76.800781 34.386719 76.800781 76.800781c-.046875 42.394531-34.40625 76.753906-76.800781 76.800781zm0-136.535156c-32.988281 0-59.734375 26.746094-59.734375 59.734375s26.746094 59.734375 59.734375 59.734375 59.734375-26.746094 59.734375-59.734375c-.039063-32.972656-26.761719-59.695312-59.734375-59.734375zm0 0"/><path d="m256 281.601562c-14.136719 0-25.601562-11.464843-25.601562-25.601562s11.464843-25.601562 25.601562-25.601562 25.601562 11.464843 25.601562 25.601562-11.464843 25.601562-25.601562 25.601562zm0-34.136718c-4.710938 0-8.535156 3.824218-8.535156 8.535156s3.824218 8.535156 8.535156 8.535156 8.535156-3.824218 8.535156-8.535156-3.824218-8.535156-8.535156-8.535156zm0 0"/><path d="m503.464844 264.535156h-145.066406c-4.710938 0-8.53125-3.824218-8.53125-8.535156s3.820312-8.535156 8.53125-8.535156h145.066406c4.714844 0 8.535156 3.824218 8.535156 8.535156s-3.820312 8.535156-8.535156 8.535156zm0 0"/><path d="m153.601562 264.535156h-145.066406c-4.714844 0-8.535156-3.824218-8.535156-8.535156s3.820312-8.535156 8.535156-8.535156h145.066406c4.710938 0 8.53125 3.824218 8.53125 8.535156s-3.820312 8.535156-8.53125 8.535156zm0 0"/></svg>