<svg height="416pt" viewBox="-3 0 416 416.69888" width="416pt" xmlns="http://www.w3.org/2000/svg"><path d="m307.820312 194.832031c0 84.832031-68.769531 153.601563-153.597656 153.601563-84.832031 0-153.601562-68.769532-153.601562-153.601563s68.769531-153.601562 153.601562-153.601562c84.828125 0 153.597656 68.769531 153.597656 153.601562zm0 0" fill="#c1dbdc"/><g fill="#4c241d"><path d="m36.226562 26.105469c-1.746093 0-3.492187-.667969-4.824218-2-2.667969-2.664063-2.667969-6.988281 0-9.652344l12.453125-12.453125c2.664062-2.667969 6.988281-2.667969 9.652343 0 2.664063 2.664062 2.664063 6.988281 0 9.652344l-12.453124 12.453125c-1.332032 1.332031-3.078126 2-4.828126 2zm0 0"/><path d="m7.175781 55.160156c-1.746093 0-3.492187-.667968-4.828125-2-2.664062-2.667968-2.664062-6.988281 0-9.65625l12.453125-12.453125c2.667969-2.664062 6.988281-2.664062 9.65625 0 2.664063 2.667969 2.664063 6.988281 0 9.652344l-12.457031 12.457031c-1.332031 1.332032-3.078125 2-4.824219 2zm0 0"/><path d="m19.628906 26.105469c-1.746094 0-3.492187-.667969-4.828125-2l-12.453125-12.453125c-2.664062-2.664063-2.664062-6.988282 0-9.652344 2.667969-2.667969 6.988282-2.667969 9.652344 0l12.457031 12.453125c2.664063 2.664063 2.664063 6.988281 0 9.652344-1.335937 1.332031-3.082031 2-4.828125 2zm0 0"/><path d="m48.679688 55.160156c-1.746094 0-3.492188-.667968-4.824219-2l-12.453125-12.457031c-2.667969-2.664063-2.667969-6.984375 0-9.652344 2.664062-2.664062 6.984375-2.664062 9.652344 0l12.453124 12.453125c2.664063 2.667969 2.664063 6.988282 0 9.65625-1.332031 1.332032-3.078124 2-4.828124 2zm0 0"/><path d="m33.574219 407.632812c-3.417969 0-6.804688-.839843-9.90625-2.492187-4.960938-2.65625-8.585938-7.082031-10.21875-12.46875-1.632813-5.378906-1.066407-11.078125 1.582031-16.039063 2.652344-4.960937 7.078125-8.585937 12.464844-10.21875 5.378906-1.648437 11.074218-1.066406 16.039062 1.585938 4.960938 2.65625 8.585938 7.082031 10.21875 12.460938v.007812c3.363282 11.105469-2.9375 22.886719-14.042968 26.253906-2.023438.609375-4.082032.910156-6.136719.910156zm.035156-28.472656c-.722656 0-1.449219.105469-2.15625.320313-1.890625.574219-3.453125 1.851562-4.386719 3.59375-.925781 1.742187-1.125 3.746093-.550781 5.640625.574219 1.890625 1.851563 3.449218 3.59375 4.382812 1.757813.933594 3.75 1.113282 5.640625.554688 3.898438-1.179688 6.117188-5.328125 4.9375-9.234375-.570312-1.890625-1.851562-3.445313-3.589844-4.378907-1.09375-.585937-2.289062-.878906-3.488281-.878906zm0 0"/><path d="m210.929688 76.519531c-11.613282 0-21.0625-9.445312-21.0625-21.054687 0-11.613282 9.449218-21.058594 21.0625-21.058594 11.613281 0 21.058593 9.445312 21.058593 21.058594 0 11.609375-9.445312 21.054687-21.058593 21.054687zm0-28.460937c-4.089844 0-7.40625 3.320312-7.40625 7.40625 0 4.082031 3.316406 7.402344 7.40625 7.402344 4.085937 0 7.40625-3.320313 7.40625-7.402344 0-4.085938-3.320313-7.40625-7.40625-7.40625zm0 0"/><path d="m404.449219 75.941406c0 5.082032-4.121094 9.203125-9.203125 9.203125-5.082032 0-9.199219-4.121093-9.199219-9.203125 0-5.082031 4.117187-9.203125 9.199219-9.203125 5.082031 0 9.203125 4.121094 9.203125 9.203125zm0 0"/></g><path d="m271.628906 180.140625s13.902344-41.703125 79.371094-62.332031c14.671875-4.625 30.554688 1.867187 38.160156 15.242187 15.101563 26.5625 30.015625 75.664063-15.285156 132.292969zm0 0" fill="#9dc1e4"/><path d="m373.867188 272.167969c-1.585938 0-3.140626-.554688-4.371094-1.582031l-102.238282-85.199219c-2.15625-1.800781-2.996093-4.742188-2.101562-7.40625.605469-1.835938 15.78125-45.253907 83.792969-66.6875 17.535156-5.488281 36.949219 2.207031 46.140625 18.386719 14.90625 26.210937 32.660156 79.246093-15.886719 139.925781-1.148437 1.433593-2.820313 2.339843-4.648437 2.523437-.226563.023438-.460938.039063-.6875.039063zm-93.9375-94.003907 92.851562 77.382813c36.324219-49.316406 25.980469-91.789063 10.4375-119.121094-6.039062-10.621093-18.746094-15.734375-30.164062-12.109375-49.714844 15.660156-67.839844 43.335938-73.125 53.847656zm0 0" fill="#4c241d"/><path d="m377.839844 408.03125c-1.746094 0-3.492188-.667969-4.824219-2-2.667969-2.664062-2.667969-6.984375 0-9.652344l20.125-20.121094c2.667969-2.664062 6.988281-2.664062 9.652344 0 2.667969 2.667969 2.667969 6.988282 0 9.65625l-20.125 20.117188c-1.332031 1.332031-3.078125 2-4.828125 2zm0 0" fill="#4c241d"/><path d="m148.941406 180.140625s-13.902344-41.703125-79.371094-62.332031c-14.671874-4.625-30.558593 1.867187-38.160156 15.242187-15.101562 26.5625-30.015625 75.664063 15.285156 132.292969zm0 0" fill="#9dc1e4"/><path d="m46.695312 272.167969c-.226562 0-.460937-.015625-.6875-.035157-1.824218-.1875-3.5-1.09375-4.644531-2.527343-48.542969-60.679688-30.789062-113.710938-15.890625-139.925781 9.195313-16.167969 28.582032-23.894532 46.148438-18.386719 68.007812 21.433593 83.179687 64.847656 83.792968 66.6875.894532 2.664062.054688 5.605469-2.097656 7.40625l-102.246094 85.199219c-1.234374 1.027343-2.789062 1.582031-4.375 1.582031zm13.328126-149.003907c-9.113282 0-17.941407 4.9375-22.679688 13.261719-15.539062 27.335938-25.886719 69.808594 10.4375 119.121094l92.859375-77.378906c-5.285156-10.515625-23.417969-38.1875-73.125-53.847657-2.46875-.78125-4.992187-1.15625-7.492187-1.15625zm0 0" fill="#4c241d"/><path d="m397.96875 408.03125c-1.746094 0-3.496094-.667969-4.828125-2l-20.125-20.117188c-2.667969-2.667968-2.667969-6.988281 0-9.65625 2.664063-2.664062 6.984375-2.664062 9.652344 0l20.125 20.121094c2.667969 2.667969 2.667969 6.988282 0 9.652344-1.332031 1.332031-3.078125 2-4.824219 2zm0 0" fill="#4c241d"/><path d="m368.421875 218.507812c10.667969 17.34375 16.632813 36.714844 16.632813 57.15625 0 74.121094-78.410157 134.207032-175.132813 134.207032-96.726563 0-175.136719-60.085938-175.136719-134.207032 0-74.121093 78.410156-134.207031 175.136719-134.207031 44.324219 0 84.804687 12.621094 115.652344 33.425781" fill="#9dc1e4"/><path d="m209.921875 416.699219c-100.339844 0-181.964844-63.265625-181.964844-141.035157 0-77.765624 81.625-141.03125 181.964844-141.03125 43.960937 0 86.386719 12.277344 119.46875 34.585938 3.125 2.105469 3.949219 6.347656 1.84375 9.472656-2.113281 3.132813-6.359375 3.945313-9.472656 1.847656-30.851563-20.800781-70.574219-32.253906-111.839844-32.253906-92.804687 0-168.3125 57.140625-168.3125 127.382813 0 70.238281 75.507813 127.378906 168.3125 127.378906 92.808594 0 168.304687-57.140625 168.304687-127.378906 0-18.699219-5.25-36.730469-15.617187-53.585938-1.980469-3.207031-.972656-7.414062 2.238281-9.386719 3.199219-1.980468 7.414063-.972656 9.386719 2.238282 11.714844 19.039062 17.648437 39.472656 17.648437 60.734375 0 77.765625-81.628906 141.03125-181.960937 141.03125zm0 0" fill="#4c241d"/><path d="m242.585938 205.054688-32.300782 32.917968-24.558594-32.175781c-5.730468-7.507813-15.234374-11.125-24.316406-8.949219-60.722656 14.554688-104.488281 55.417969-104.488281 103.632813 0 60.414062 68.660156 109.390625 153.363281 109.390625 84.699219 0 153.363282-48.976563 153.363282-109.390625 0-46.351563-40.464844-85.886719-97.535157-101.808594-8.378906-2.335937-17.382812.125-23.527343 6.382813zm0 0" fill="#fff"/><path d="m210.28125 416.699219c-88.324219 0-160.183594-52.132813-160.183594-116.222657 0-50.226562 44.09375-94.53125 109.71875-110.265624 11.628906-2.785157 23.90625 1.714843 31.332032 11.449218l19.78125 25.90625 26.785156-27.292968c7.894531-8.046876 19.488281-11.160157 30.234375-8.171876 62.277343 17.371094 102.527343 59.910157 102.527343 108.378907 0 64.085937-71.859374 116.21875-160.195312 116.21875zm-43.570312-213.648438c-1.242188 0-2.480469.148438-3.707032.441407-59.367187 14.226562-99.253906 53.207031-99.253906 96.984374 0 56.554688 65.734375 102.570313 146.53125 102.570313 80.800781 0 146.539062-46.015625 146.539062-102.570313 0-41.519531-37.183593-79.792968-92.539062-95.230468-5.980469-1.65625-12.414062.085937-16.820312 4.585937l-32.304688 32.921875c-1.386719 1.410156-3.367188 2.117188-5.296875 2.03125-1.976563-.121094-3.804687-1.101562-5.007813-2.671875l-24.558593-32.175781c-3.34375-4.386719-8.410157-6.886719-13.582031-6.886719zm75.875 2h.066406zm0 0" fill="#4c241d"/><path d="m355.734375 208.132812c-1.90625 0-3.800781-.792968-5.148437-2.347656-3.140626-3.597656-6.546876-7.121094-10.136719-10.460937-2.761719-2.566407-2.921875-6.886719-.355469-9.644531 2.574219-2.765626 6.902344-2.90625 9.648438-.355469 3.945312 3.667969 7.691406 7.535156 11.136718 11.5 2.480469 2.839843 2.179688 7.152343-.664062 9.628906-1.292969 1.125-2.886719 1.679687-4.480469 1.679687zm0 0" fill="#4c241d"/><path d="m161.164062 350.410156c4.582032-15.609375 13.742188-29.855468 27.980469-42.589844 9.832031-8.796874 24.890625-9.503906 35.207031-1.273437 16.21875 12.933594 25.761719 28.1875 29.402344 45.488281 2.523438 12.011719-7.140625 23.1875-19.414062 23.1875h-54.113282c-12.949218-.003906-22.710937-12.382812-19.0625-24.8125" fill="#e66353"/><path d="m234.339844 382.046875h-54.113282c-8.378906 0-16.386718-4.019531-21.425781-10.75-4.964843-6.632813-6.5-14.953125-4.195312-22.804687 0 0 0-.007813.007812-.007813 5.007813-17.046875 15.09375-32.441406 29.976563-45.753906 12.335937-11.03125 31.265625-11.6875 44.019531-1.527344 17.085937 13.632813 27.792969 30.257813 31.824219 49.425781 1.59375 7.5625-.324219 15.394532-5.273438 21.480469-5.117187 6.316406-12.707031 9.9375-20.820312 9.9375zm-66.632813-29.707031c-1.078125 3.683594-.339843 7.621094 2.019531 10.777344 2.515626 3.355468 6.34375 5.273437 10.5 5.273437h54.113282c3.980468 0 7.703125-1.777344 10.222656-4.878906 2.371094-2.925781 3.265625-6.5 2.511719-10.066407-3.40625-16.207031-12.234375-29.800781-26.980469-41.558593-7.613281-6.074219-18.964844-5.621094-26.398438 1.019531-12.960937 11.59375-21.707031 24.859375-25.988281 39.433594zm0 0" fill="#4c241d"/><path d="m256.292969 275.535156c18.398437-4.917968 36.320312-5.210937 53.675781 0" fill="#fff"/><path d="m309.96875 282.359375c-.648438 0-1.308594-.09375-1.960938-.289063-15.539062-4.671874-32.34375-4.652343-49.953124.054688-3.585938.980469-7.378907-1.1875-8.355469-4.832031-.972657-3.640625 1.1875-7.382813 4.835937-8.355469 20.09375-5.359375 39.398438-5.332031 57.394532.054688 3.609374 1.085937 5.65625 4.890624 4.578124 8.496093-.886718 2.964844-3.597656 4.871094-6.539062 4.871094zm0 0" fill="#4c241d"/><path d="m102.929688 275.535156c18.398437-4.917968 36.320312-5.210937 53.675781 0" fill="#fff"/><path d="m156.609375 282.359375c-.648437 0-1.308594-.09375-1.960937-.289063-15.765626-4.71875-32.105469-4.707031-49.957032.054688-3.59375.980469-7.378906-1.1875-8.355468-4.832031-.972657-3.640625 1.1875-7.382813 4.832031-8.355469 20.074219-5.359375 39.394531-5.347656 57.402343.054688 3.613282 1.085937 5.660157 4.882812 4.582032 8.496093-.890625 2.964844-3.605469 4.871094-6.542969 4.871094zm0 0" fill="#4c241d"/><path d="m253.988281 354.644531-29.871093-8.542969 3.757812 29.117188h6.46875c11.371094 0 20.375-9.609375 19.644531-20.574219zm0 0" fill="#fff"/><path d="m234.339844 382.046875h-6.464844c-3.433594 0-6.332031-2.546875-6.773438-5.953125l-3.761718-29.121094c-.292969-2.28125.582031-4.554687 2.320312-6.046875 1.742188-1.5 4.113282-2.007812 6.332032-1.390625l29.875 8.546875c2.765624.792969 4.738281 3.238281 4.933593 6.113281.464844 7.074219-2.09375 14.144532-7.019531 19.410157-5.019531 5.367187-12.105469 8.441406-19.441406 8.441406zm-.464844-13.65625h.464844c3.628906 0 6.988281-1.457031 9.476562-4.113281 1.285156-1.378906 2.226563-2.957032 2.785156-4.644532l-14.386718-4.113281zm0 0" fill="#4c241d"/><path d="m188.785156 346.101562-28.242187 8.078126c-.921875 11.039062 8.046875 21.042968 19.6875 21.042968h4.792969zm0 0" fill="#fff"/><path d="m185.023438 382.046875h-4.796876c-7.417968 0-14.566406-3.140625-19.597656-8.617187-4.980468-5.410157-7.488281-12.636719-6.878906-19.824219.234375-2.828125 2.191406-5.207031 4.917969-5.988281l28.234375-8.078126c2.214844-.648437 4.59375-.113281 6.332031 1.386719 1.742187 1.492188 2.613281 3.765625 2.320313 6.046875l-3.757813 29.117188c-.441406 3.410156-3.339844 5.957031-6.773437 5.957031zm-17.203126-22.847656c.546876 1.820312 1.523438 3.53125 2.855469 4.992187 2.21875 2.410156 5.148438 3.855469 8.355469 4.148438l1.652344-12.820313zm0 0" fill="#4c241d"/></svg>